<svg width="24" height="24" viewBox="0 0 24 24" fill="none" xmlns="http://www.w3.org/2000/svg">
<g clip-path="url(#clip0_5_58)">
<path fill-rule="evenodd" clip-rule="evenodd" d="M14.8744 18.4163L11.8744 22.9163C11.7257 23.1393 11.4692 23.2661 11.2017 23.2488C10.9342 23.2316 10.6962 23.0729 10.5773 22.8326C10.4585 22.5923 10.4769 22.3068 10.6256 22.0837L13.6256 17.5837C13.8555 17.2389 14.3214 17.1457 14.6663 17.3756C15.0111 17.6055 15.1043 18.0714 14.8744 18.4163ZM21.75 8.625C21.7459 12.5583 18.5583 15.7459 14.625 15.75H12.4012L9.62438 19.9163C9.47566 20.1393 9.21924 20.2661 8.9517 20.2488C8.68417 20.2316 8.44616 20.0729 8.32733 19.8326C8.2085 19.5923 8.22691 19.3068 8.37562 19.0837L10.5984 15.75H7.125C4.43261 15.75 2.25 13.5674 2.25 10.875C2.25 8.18261 4.43261 6 7.125 6C7.40526 6.00024 7.68499 6.02407 7.96125 6.07125C9.19535 2.8657 12.5389 0.995073 15.9164 1.6206C19.2939 2.24612 21.7457 5.1901 21.75 8.625ZM20.25 8.625C20.2375 5.58894 17.8202 3.10948 14.7855 3.01995C11.7507 2.93043 9.19142 5.26308 9 8.29313C8.97618 8.70734 8.62109 9.02382 8.20687 9C7.79266 8.97618 7.47618 8.62109 7.5 8.20687C7.51312 7.97812 7.53719 7.75219 7.57219 7.52906C7.42388 7.51003 7.27452 7.50032 7.125 7.5C5.26104 7.5 3.75 9.01104 3.75 10.875C3.75 12.739 5.26104 14.25 7.125 14.25H14.625C17.7301 14.2464 20.2464 11.7301 20.25 8.625Z" fill="white"/>
</g>
<defs>
<clipPath id="clip0_5_58">
<rect width="24" height="24" fill="white"/>
</clipPath>
</defs>
</svg>
