<svg width="24" height="24" viewBox="0 0 24 24" fill="none" xmlns="http://www.w3.org/2000/svg">
<g clip-path="url(#clip0_10_1125)">
<path fill-rule="evenodd" clip-rule="evenodd" d="M12 2.25C6.61522 2.25 2.25 6.61522 2.25 12C2.25 17.3848 6.61522 21.75 12 21.75C17.3848 21.75 21.75 17.3848 21.75 12C21.7443 6.61758 17.3824 2.25568 12 2.25ZM19.3472 8.25H16.0256C15.6429 6.74392 15.0001 5.31623 14.1263 4.03125C16.3838 4.63793 18.28 6.17014 19.3472 8.25ZM12 3.76031C13.125 4.97906 13.9688 6.53062 14.4722 8.25H9.52781C10.0312 6.53062 10.875 4.98094 12 3.76031ZM9 12C9.00012 11.2461 9.06284 10.4935 9.1875 9.75H14.8125C15.0612 11.2397 15.0612 12.7603 14.8125 14.25H9.1875C9.06284 13.5065 9.00012 12.7539 9 12ZM9.52781 15.75H14.4722C13.9688 17.4694 13.125 19.0191 12 20.2397C10.875 19.0191 10.0312 17.4694 9.52781 15.75ZM14.1263 19.9688C15.0001 18.6838 15.6429 17.2561 16.0256 15.75H19.3472C18.28 17.8299 16.3838 19.3621 14.1263 19.9688ZM16.3322 14.25C16.5559 12.7583 16.5559 11.2417 16.3322 9.75H19.9378C20.3541 11.2211 20.3541 12.7789 19.9378 14.25H16.3322Z" fill="white"/>
</g>
<defs>
<clipPath id="clip0_10_1125">
<rect width="24" height="24" fill="white"/>
</clipPath>
</defs>
</svg>
